<svg xmlns="http://www.w3.org/2000/svg" xmlns:xlink="http://www.w3.org/1999/xlink" width="50" zoomAndPan="magnify" viewBox="0 0 37.5 37.499999" height="50" preserveAspectRatio="xMidYMid meet" version="1.0"><defs><clipPath id="50065ad3d3"><path d="M 0.542969 9.039062 L 36.808594 9.039062 L 36.808594 28.28125 L 0.542969 28.28125 Z M 0.542969 9.039062 " clip-rule="nonzero"/></clipPath></defs><g clip-path="url(#50065ad3d3)"><path fill="#000000" d="M 21.519531 18.828125 L 19.9375 21.957031 L 19.90625 21.957031 L 19.824219 18.828125 L 18.503906 18.828125 L 18.453125 18.941406 L 18.566406 19.011719 C 18.675781 19.089844 18.703125 19.167969 18.71875 19.386719 L 18.898438 23.179688 L 20.371094 23.179688 L 22.75 18.828125 Z M 16.8125 21.082031 C 16.664062 21.507812 16.550781 21.785156 16.378906 21.964844 C 16.242188 22.109375 16.0625 22.210938 15.652344 22.210938 C 15.332031 22.210938 15.152344 22.078125 15.152344 21.828125 C 15.152344 21.667969 15.195312 21.421875 15.367188 20.941406 C 15.515625 20.515625 15.632812 20.238281 15.804688 20.058594 C 15.9375 19.914062 16.117188 19.8125 16.527344 19.8125 C 16.847656 19.8125 17.027344 19.945312 17.027344 20.195312 C 17.03125 20.359375 16.984375 20.605469 16.8125 21.082031 M 16.746094 18.773438 L 16.609375 18.773438 C 15.792969 18.773438 15.328125 18.996094 14.945312 19.40625 C 14.472656 19.910156 14.027344 21.277344 14.035156 22 C 14.042969 22.738281 14.519531 23.25 15.511719 23.25 L 15.660156 23.25 C 16.476562 23.25 16.941406 23.027344 17.320312 22.621094 C 17.796875 22.113281 18.230469 20.746094 18.222656 20.023438 C 18.214844 19.289062 17.742188 18.773438 16.746094 18.773438 M 12.75 20.410156 C 12.675781 20.59375 12.59375 20.640625 12.484375 20.683594 C 12.414062 20.710938 12.261719 20.722656 12.113281 20.722656 L 11.546875 20.722656 L 11.855469 19.824219 L 12.542969 19.824219 C 12.75 19.824219 12.832031 19.929688 12.835938 20.054688 C 12.835938 20.132812 12.800781 20.273438 12.75 20.410156 M 12.648438 18.828125 L 10.78125 18.828125 L 10.746094 18.941406 L 10.820312 19.015625 C 10.898438 19.09375 10.898438 19.1875 10.828125 19.390625 L 9.523438 23.179688 L 10.714844 23.179688 L 11.222656 21.675781 L 11.628906 21.675781 L 12.074219 23.179688 L 13.273438 23.179688 L 12.710938 21.640625 C 13.035156 21.585938 13.199219 21.492188 13.363281 21.347656 C 13.589844 21.140625 13.742188 20.847656 13.871094 20.421875 C 14.058594 19.800781 13.945312 19.449219 13.824219 19.265625 C 13.660156 19.015625 13.308594 18.828125 12.648438 18.828125 M 25.140625 21.433594 L 25.46875 20.523438 L 23.953125 20.523438 L 24.1875 19.832031 L 25.832031 19.832031 L 26.191406 18.828125 L 23.089844 18.828125 L 23.046875 18.953125 L 23.121094 19.027344 C 23.199219 19.105469 23.195312 19.199219 23.128906 19.402344 L 21.835938 23.179688 L 24.734375 23.179688 L 25.085938 22.167969 L 23.394531 22.167969 L 23.640625 21.433594 Z M 28.625 20.410156 C 28.550781 20.59375 28.464844 20.640625 28.359375 20.683594 C 28.289062 20.710938 28.136719 20.722656 27.992188 20.722656 L 27.421875 20.722656 L 27.730469 19.824219 L 28.417969 19.824219 C 28.621094 19.824219 28.707031 19.929688 28.707031 20.054688 C 28.710938 20.132812 28.675781 20.273438 28.625 20.410156 M 28.519531 18.828125 L 26.65625 18.828125 L 26.621094 18.941406 L 26.695312 19.015625 C 26.773438 19.09375 26.769531 19.1875 26.703125 19.390625 L 25.398438 23.179688 L 26.589844 23.179688 L 27.097656 21.675781 L 27.5 21.675781 L 27.949219 23.179688 L 29.144531 23.179688 L 28.582031 21.640625 C 28.910156 21.585938 29.074219 21.492188 29.238281 21.347656 C 29.460938 21.140625 29.617188 20.847656 29.746094 20.421875 C 29.933594 19.800781 29.820312 19.449219 29.699219 19.265625 C 29.535156 19.015625 29.183594 18.828125 28.519531 18.828125 M 30.964844 24.667969 C 27.695312 26.371094 23.332031 27.308594 18.675781 27.308594 C 14.023438 27.308594 9.660156 26.371094 6.390625 24.667969 C 3.242188 23.03125 1.507812 20.894531 1.507812 18.660156 C 1.507812 16.425781 3.242188 14.292969 6.390625 12.65625 C 9.660156 10.953125 14.023438 10.011719 18.675781 10.011719 C 23.332031 10.011719 27.695312 10.953125 30.964844 12.65625 C 34.113281 14.292969 35.84375 16.425781 35.84375 18.660156 C 35.84375 20.894531 34.113281 23.03125 30.964844 24.667969 M 31.40625 11.789062 C 28 10.019531 23.480469 9.042969 18.675781 9.042969 C 13.875 9.042969 9.351562 10.019531 5.945312 11.789062 C 3.929688 12.839844 0.542969 15.132812 0.542969 18.660156 C 0.542969 22.191406 3.929688 24.480469 5.945312 25.53125 C 9.351562 27.304688 13.871094 28.28125 18.675781 28.28125 C 23.480469 28.28125 28 27.304688 31.40625 25.53125 C 33.425781 24.480469 36.808594 22.191406 36.808594 18.660156 C 36.808594 15.128906 33.425781 12.839844 31.40625 11.789062 M 30.507812 23.773438 C 26.988281 25.605469 22.609375 26.304688 18.675781 26.304688 C 14.742188 26.304688 10.367188 25.605469 6.847656 23.773438 C 4.984375 22.804688 2.507812 21.015625 2.507812 18.660156 C 2.507812 16.304688 4.984375 14.519531 6.847656 13.546875 C 10.367188 11.714844 14.742188 11.019531 18.675781 11.019531 C 22.609375 11.019531 26.988281 11.714844 30.507812 13.546875 C 32.371094 14.519531 34.847656 16.304688 34.847656 18.660156 C 34.847656 21.019531 32.371094 22.804688 30.507812 23.773438 M 30.6875 13.191406 C 27.117188 11.328125 22.667969 10.617188 18.675781 10.617188 C 14.6875 10.617188 10.238281 11.328125 6.664062 13.191406 C 4.65625 14.234375 2.109375 16.121094 2.109375 18.660156 C 2.109375 21.199219 4.65625 23.085938 6.664062 24.132812 C 10.238281 25.992188 14.6875 26.707031 18.675781 26.707031 C 22.667969 26.707031 27.117188 25.992188 30.6875 24.132812 C 32.699219 23.085938 35.246094 21.199219 35.246094 18.660156 C 35.246094 16.121094 32.699219 14.234375 30.6875 13.191406 M 9.664062 19.390625 L 6.402344 20.46875 L 6.007812 21.570312 L 8.878906 21.570312 L 9.253906 20.53125 L 7.261719 20.53125 L 9.523438 19.761719 Z M 22.628906 14.570312 L 23.101562 14.570312 C 23.425781 14.570312 23.601562 14.679688 23.605469 14.929688 C 23.609375 15.089844 23.566406 15.3125 23.398438 15.789062 C 23.25 16.214844 23.132812 16.464844 22.964844 16.644531 C 22.832031 16.785156 22.652344 16.851562 22.242188 16.851562 L 21.847656 16.851562 Z M 21.59375 14.097656 L 20.304688 17.886719 L 22.207031 17.886719 C 23.023438 17.886719 23.488281 17.707031 23.867188 17.296875 C 24.339844 16.792969 24.773438 15.480469 24.757812 14.757812 C 24.746094 14.019531 24.273438 13.539062 23.277344 13.539062 L 21.546875 13.539062 L 21.511719 13.648438 L 21.585938 13.722656 C 21.667969 13.804688 21.664062 13.894531 21.59375 14.097656 M 28.773438 15.097656 L 25.898438 15.097656 L 25.523438 16.132812 L 27.515625 16.132812 L 25.253906 16.90625 L 25.117188 17.277344 L 28.375 16.199219 Z M 15.929688 17.886719 L 17.011719 17.886719 L 17.957031 15.070312 L 18.507812 17.886719 L 19.59375 17.886719 L 21.070312 13.535156 L 19.9375 13.539062 L 19.148438 15.902344 L 18.699219 13.539062 L 17.171875 13.539062 L 17.132812 13.648438 L 17.207031 13.722656 C 17.289062 13.804688 17.285156 13.894531 17.214844 14.097656 Z M 8.164062 17.886719 L 11.109375 17.886719 L 11.46875 16.851562 L 9.753906 16.851562 L 10.886719 13.539062 L 9.410156 13.539062 L 9.371094 13.648438 L 9.445312 13.722656 C 9.527344 13.804688 9.523438 13.894531 9.453125 14.097656 Z M 14.433594 14.738281 L 14.472656 14.738281 L 14.492188 16.054688 L 13.699219 16.054688 Z M 11.417969 17.886719 L 12.671875 17.886719 L 13.214844 16.925781 L 14.511719 16.925781 L 14.523438 17.886719 L 15.664062 17.886719 L 15.417969 13.539062 L 13.714844 13.539062 L 13.675781 13.648438 L 13.730469 13.707031 C 13.820312 13.792969 13.785156 13.921875 13.453125 14.449219 Z M 11.417969 17.886719 " fill-opacity="1" fill-rule="nonzero"/></g></svg>