<svg xmlns="http://www.w3.org/2000/svg" xmlns:xlink="http://www.w3.org/1999/xlink" width="50" zoomAndPan="magnify" viewBox="0 0 37.5 37.499999" height="50" preserveAspectRatio="xMidYMid meet" version="1.0"><path fill="#000000" d="M 18.675781 34.210938 C 10.117188 34.210938 3.0625 27.097656 3.0625 18.546875 C 3.0625 16.769531 3.40625 15.058594 3.953125 13.417969 L 13.0625 31.132812 C 13.199219 31.40625 13.335938 31.542969 13.609375 31.542969 C 13.949219 31.542969 14.019531 31.335938 14.15625 31.132812 L 18.402344 21.691406 C 18.46875 21.554688 18.539062 21.488281 18.605469 21.488281 C 18.742188 21.488281 18.742188 21.625 18.8125 21.691406 L 23.125 31.132812 C 23.261719 31.40625 23.398438 31.542969 23.675781 31.542969 C 24.015625 31.542969 24.085938 31.335938 24.222656 31.132812 L 33.328125 13.417969 C 33.875 14.988281 34.21875 16.699219 34.21875 18.546875 C 34.289062 27.097656 27.234375 34.210938 18.675781 34.210938 Z M 18.675781 14.511719 C 18.539062 14.511719 18.539062 14.375 18.46875 14.304688 L 13.609375 3.773438 C 16.894531 2.609375 20.457031 2.609375 23.742188 3.773438 L 18.882812 14.304688 C 18.8125 14.375 18.8125 14.511719 18.675781 14.511719 Z M 13.539062 25.933594 C 13.402344 25.933594 13.402344 25.796875 13.335938 25.726562 L 5.390625 10.40625 C 6.761719 8.148438 8.816406 6.234375 11.144531 4.867188 L 16.757812 17.042969 C 16.894531 17.316406 17.03125 17.382812 17.167969 17.382812 L 20.113281 17.382812 C 20.320312 17.382812 20.457031 17.316406 20.523438 17.042969 L 26.140625 4.867188 C 28.46875 6.164062 30.519531 8.082031 31.890625 10.40625 L 24.015625 25.726562 C 23.949219 25.863281 23.878906 25.933594 23.8125 25.933594 C 23.675781 25.933594 23.675781 25.796875 23.605469 25.726562 L 20.59375 19.023438 C 20.457031 18.75 20.320312 18.683594 20.183594 18.683594 L 17.238281 18.683594 C 17.03125 18.683594 16.894531 18.75 16.828125 19.023438 L 13.746094 25.726562 C 13.675781 25.796875 13.675781 25.933594 13.539062 25.933594 Z M 18.675781 36.332031 C 28.535156 36.332031 36.410156 28.394531 36.410156 18.613281 C 36.410156 8.832031 28.535156 0.832031 18.675781 0.832031 C 8.816406 0.832031 0.941406 8.765625 0.941406 18.546875 C 0.941406 28.328125 8.882812 36.332031 18.675781 36.332031 Z M 18.675781 36.332031 " fill-opacity="1" fill-rule="nonzero"/></svg>